<svg xmlns="http://www.w3.org/2000/svg" viewBox="0 0 180 180" width="180" height="180">
  <defs>
    <linearGradient id="bg" x1="0%" y1="0%" x2="100%" y2="100%">
      <stop offset="0%" style="stop-color:#1e3a5f"/>
      <stop offset="100%" style="stop-color:#0f2744"/>
    </linearGradient>
  </defs>
  <!-- Background -->
  <rect width="180" height="180" rx="36" fill="url(#bg)"/>
  <!-- Left laurel branch -->
  <g fill="none" stroke="#4a9eff" stroke-width="5" stroke-linecap="round" transform="translate(90, 90)">
    <!-- Left branch stem -->
    <path d="M-28 50 Q-32 25 -28 0 Q-22 -30 -10 -50"/>
    <!-- Left leaves -->
    <path d="M-28 40 Q-45 36 -52 26"/>
    <path d="M-30 28 Q-50 22 -56 10"/>
    <path d="M-28 14 Q-48 8 -54 -6"/>
    <path d="M-24 0 Q-44 -8 -48 -22"/>
    <path d="M-18 -16 Q-36 -24 -38 -38"/>
    <path d="M-12 -32 Q-26 -40 -26 -52"/>
  </g>
  <!-- Right laurel branch -->
  <g fill="none" stroke="#4a9eff" stroke-width="5" stroke-linecap="round" transform="translate(90, 90)">
    <!-- Right branch stem -->
    <path d="M28 50 Q32 25 28 0 Q22 -30 10 -50"/>
    <!-- Right leaves -->
    <path d="M28 40 Q45 36 52 26"/>
    <path d="M30 28 Q50 22 56 10"/>
    <path d="M28 14 Q48 8 54 -6"/>
    <path d="M24 0 Q44 -8 48 -22"/>
    <path d="M18 -16 Q36 -24 38 -38"/>
    <path d="M12 -32 Q26 -40 26 -52"/>
  </g>
  <!-- Center globe -->
  <circle cx="90" cy="85" r="22" fill="none" stroke="#4a9eff" stroke-width="4"/>
  <ellipse cx="90" cy="85" rx="8" ry="22" fill="none" stroke="#4a9eff" stroke-width="3"/>
  <path d="M68 85 h44" stroke="#4a9eff" stroke-width="3"/>
</svg>
