<svg xmlns="http://www.w3.org/2000/svg" viewBox="0 0 32 32" width="32" height="32">
  <defs>
    <linearGradient id="bg" x1="0%" y1="0%" x2="100%" y2="100%">
      <stop offset="0%" style="stop-color:#1e3a5f"/>
      <stop offset="100%" style="stop-color:#0f2744"/>
    </linearGradient>
  </defs>
  <!-- Background circle -->
  <circle cx="16" cy="16" r="15" fill="url(#bg)" stroke="#4a9eff" stroke-width="1"/>
  <!-- Left laurel branch -->
  <g fill="none" stroke="#4a9eff" stroke-width="1.2" stroke-linecap="round">
    <!-- Left branch stem -->
    <path d="M11 24 Q10 20 11 16 Q12 12 14 9"/>
    <!-- Left leaves -->
    <path d="M11 22 Q8 21 7 19"/>
    <path d="M11 20 Q7.5 19.5 6.5 17"/>
    <path d="M11.5 18 Q8 17 7 14.5"/>
    <path d="M12 16 Q9 15 8 12.5"/>
    <path d="M13 14 Q10.5 13 10 11"/>
    <path d="M14 12 Q12 11 11.5 9"/>
  </g>
  <!-- Right laurel branch -->
  <g fill="none" stroke="#4a9eff" stroke-width="1.2" stroke-linecap="round">
    <!-- Right branch stem -->
    <path d="M21 24 Q22 20 21 16 Q20 12 18 9"/>
    <!-- Right leaves -->
    <path d="M21 22 Q24 21 25 19"/>
    <path d="M21 20 Q24.5 19.5 25.5 17"/>
    <path d="M20.5 18 Q24 17 25 14.5"/>
    <path d="M20 16 Q23 15 24 12.5"/>
    <path d="M19 14 Q21.5 13 22 11"/>
    <path d="M18 12 Q20 11 20.5 9"/>
  </g>
  <!-- Center globe/world symbol -->
  <circle cx="16" cy="15" r="4" fill="none" stroke="#4a9eff" stroke-width="1"/>
  <ellipse cx="16" cy="15" rx="1.5" ry="4" fill="none" stroke="#4a9eff" stroke-width="0.8"/>
  <path d="M12 15 h8" stroke="#4a9eff" stroke-width="0.8"/>
</svg>
